<?xml version="1.0" encoding="iso-8859-1"?>
<!-- Generator: Adobe Illustrator 19.0.0, SVG Export Plug-In . SVG Version: 6.00 Build 0)  -->
<svg version="1.1" id="Layer_1" xmlns="http://www.w3.org/2000/svg" xmlns:xlink="http://www.w3.org/1999/xlink" x="0px" y="0px"
	 viewBox="0 0 511.999 511.999" style="enable-background:new 0 0 511.999 511.999;" xml:space="preserve">
<g>
	<path style="fill:#386499;" d="M301.919,96.159H172.604l-78.086,86.234l0.03,35.3l17.835,229.227h249.755l17.836-229.227
		l0.032-35.3L301.919,96.159z M283.129,169.816h-91.734c-8.366,0-15.151-6.784-15.151-15.151c0-8.367,6.785-15.15,15.151-15.15
		h91.734c8.368,0,15.151,6.784,15.151,15.15C298.279,163.033,291.497,169.816,283.129,169.816z"/>
	<polygon style="fill:#386499;" points="112.383,446.922 116.849,504.322 357.671,504.322 362.138,446.922 	"/>
</g>
<circle style="fill:#F6E088;" cx="237.263" cy="330.213" r="58.673"/>
<g>
	<path style="fill:#491E17;" d="M191.396,131.835c-12.589,0-22.829,10.241-22.829,22.828c0,12.589,10.241,22.829,22.829,22.829
		h91.734c12.588,0,22.829-10.241,22.829-22.829c0-12.587-10.241-22.828-22.829-22.828H191.396z M290.601,154.665
		c0,4.121-3.352,7.473-7.473,7.473h-91.734c-4.12,0-7.473-3.352-7.473-7.473c0-4.12,3.352-7.472,7.473-7.472h91.734
		C287.249,147.192,290.601,150.544,290.601,154.665z"/>
	<path style="fill:#491E17;" d="M425.163,39.453l-12.271-9.234l-72.763,96.697l-5.973-6.595l39.715-115.32L359.353,0L322.39,107.326
		l-17.066-18.845H169.198l-82.362,90.955l0.033,38.264l17.215,221.542h-0.001l1.13,14.527l0.065,0.83l0,0l4.466,57.4h255.031
		l4.467-57.4l0,0l18.387-236.31l0.058-38.854l-37.063-40.929L425.163,39.453z M350.567,496.643H123.954l-3.271-42.043h233.157
		L350.567,496.643z M372.303,210.016H312.4v15.357h59.275l-16.642,213.871H119.488l-16.641-213.871h189.075v-15.357H102.22
		l-0.021-24.665l73.81-81.512h122.505l73.812,81.512L372.303,210.016z"/>
	<path style="fill:#491E17;" d="M237.263,263.862c-36.584,0-66.348,29.764-66.348,66.348s29.763,66.348,66.348,66.348
		c36.584,0,66.348-29.764,66.348-66.348S273.847,263.862,237.263,263.862z M237.263,381.2c-28.116,0-50.991-22.875-50.991-50.991
		s22.875-50.991,50.991-50.991s50.991,22.875,50.991,50.991C288.252,358.326,265.379,381.2,237.263,381.2z"/>
</g>
<g>
</g>
<g>
</g>
<g>
</g>
<g>
</g>
<g>
</g>
<g>
</g>
<g>
</g>
<g>
</g>
<g>
</g>
<g>
</g>
<g>
</g>
<g>
</g>
<g>
</g>
<g>
</g>
<g>
</g>
</svg>
